<?xml version="1.0" encoding="UTF-8" standalone="no"?>
<!-- Created with Inkscape (http://www.inkscape.org/) -->

<svg
   width="64.958748mm"
   height="45.444389mm"
   viewBox="0 0 64.958748 45.444389"
   version="1.1"
   id="svg1"
   inkscape:version="1.3 (0e150ed, 2023-07-21)"
   sodipodi:docname="logo.svg"
   xmlns:inkscape="http://www.inkscape.org/namespaces/inkscape"
   xmlns:sodipodi="http://sodipodi.sourceforge.net/DTD/sodipodi-0.dtd"
   xmlns="http://www.w3.org/2000/svg"
   xmlns:svg="http://www.w3.org/2000/svg">
  <sodipodi:namedview
     id="namedview1"
     pagecolor="#ffffff"
     bordercolor="#666666"
     borderopacity="1.0"
     inkscape:showpageshadow="2"
     inkscape:pageopacity="0.0"
     inkscape:pagecheckerboard="0"
     inkscape:deskcolor="#d1d1d1"
     inkscape:document-units="mm"
     inkscape:zoom="1.3109995"
     inkscape:cx="371.85369"
     inkscape:cy="292.90629"
     inkscape:window-width="1440"
     inkscape:window-height="847"
     inkscape:window-x="0"
     inkscape:window-y="25"
     inkscape:window-maximized="0"
     inkscape:current-layer="layer1" />
  <defs
     id="defs1" />
  <g
     inkscape:label="Capa 1"
     inkscape:groupmode="layer"
     id="layer1"
     transform="translate(-20.702296,-42.734038)">
    <rect
       style="fill:#eaeaea;fill-opacity:1;stroke:#000000;stroke-width:0.2;stroke-linecap:round;stroke-opacity:1"
       id="rect1"
       width="64.758743"
       height="45.244389"
       x="20.802296"
       y="42.834038" />
    <path
       style="fill:none;stroke:#000000;stroke-width:0.264583px;stroke-linecap:butt;stroke-linejoin:miter;stroke-opacity:1"
       d="m 20.799974,76.307198 c 0,0 28.20341,-8.160751 33.040784,-8.531183 9.219133,-0.705975 31.703405,1.563353 31.703405,1.563353"
       id="path4"
       sodipodi:nodetypes="csc" />
    <g
       id="g3"
       transform="matrix(0.54430951,0,0,0.54430951,2.0763518,46.809049)">
      <path
         style="fill:#bfbfbf;stroke:#000000;stroke-width:0.264583px;stroke-linecap:butt;stroke-linejoin:miter;stroke-opacity:1"
         d="m 117.92899,27.524549 c 0,0 -7.08298,14.021424 -6.64933,15.033278 0.43365,1.011857 0.72275,2.601915 1.87916,2.168263 1.1564,-0.433652 6.21568,-13.15412 6.21568,-13.15412 z"
         id="path3-6" />
      <path
         style="fill:#bfbfbf;stroke:#000000;stroke-width:0.264583px;stroke-linecap:butt;stroke-linejoin:miter;stroke-opacity:1"
         d="m 116.88206,44.766451 c 0,0 0,15.611486 0.43365,16.623336 0.43365,1.01186 0.72275,2.60192 1.87916,2.16826 1.1564,-0.43365 9.25125,-18.936147 9.25125,-18.936147 z"
         id="path3-3-5"
         sodipodi:nodetypes="csscc" />
      <path
         style="fill:#bfbfbf;stroke:#000000;stroke-width:0.264583px;stroke-linecap:butt;stroke-linejoin:miter;stroke-opacity:1"
         d="m 137.08666,45.87919 c 0,0 0,15.611487 -0.43365,16.623337 -0.43366,1.01186 -0.72276,2.60192 -1.87916,2.16826 -1.15641,-0.43365 -9.25125,-18.936148 -9.25125,-18.936148 z"
         id="path3-3-0-7"
         sodipodi:nodetypes="csscc" />
      <path
         style="fill:#bfbfbf;stroke:#000000;stroke-width:0.264583px;stroke-linecap:butt;stroke-linejoin:miter;stroke-opacity:1"
         d="m 133.51151,27.957205 c 0,0 7.08298,14.02142 6.64933,15.03328 -0.43365,1.01186 -0.72275,2.60191 -1.87916,2.16826 -1.1564,-0.43365 -6.21568,-13.15412 -6.21568,-13.15412 z"
         id="path3-7-6" />
      <path
         style="fill:#bfbfbf;stroke:#000000;stroke-width:0.264583px;stroke-linecap:butt;stroke-linejoin:miter;stroke-opacity:1"
         d="m 115.76073,46.4607 22.11626,0.144549 c 0,0 -1.59005,-14.310523 -3.61377,-17.924293 -1.89778,-3.388885 -7.18649,-5.346223 -9.25124,-5.203827 -4.19197,0.289101 -6.92531,2.839308 -7.95029,5.637478 -0.91625,2.501334 -1.30096,17.346093 -1.30096,17.346093 z"
         id="path2-2"
         sodipodi:nodetypes="ccsssc" />
      <circle
         style="fill:#bfbfbf;stroke:#000000;stroke-width:0.2;stroke-linecap:round;stroke-opacity:1"
         id="path1-8-7"
         cx="125.38463"
         cy="19.03418"
         r="7.0279322" />
    </g>
    <path
       style="fill:none;stroke:#000000;stroke-width:0.264583px;stroke-linecap:butt;stroke-linejoin:miter;stroke-opacity:1"
       d="m 39.849647,70.934457 c 0,0 -12.351819,-4.324334 -13.499195,-4.706792 -1.147376,-0.382458 -5.50964,-1.018457 -5.50964,-1.018457"
       id="path5"
       sodipodi:nodetypes="csc" />
    <path
       style="fill:none;stroke:#000000;stroke-width:0.264583px;stroke-linecap:butt;stroke-linejoin:miter;stroke-opacity:1"
       d="m 32.517436,68.342821 c 4.015817,-1.338606 4.963518,-2.559925 7.258268,-1.986237 2.294752,0.573688 6.986725,2.856808 6.986725,2.856808"
       id="path6"
       sodipodi:nodetypes="csc" />
    <rect
       style="fill:none;fill-opacity:1;stroke:#18cc00;stroke-width:0.189089;stroke-linecap:round;stroke-opacity:1"
       id="rect6"
       width="19.167015"
       height="31.425007"
       x="60.822716"
       y="52.183445" />
  </g>
</svg>
